<svg id="visual" viewBox="0 0 1024 720" width="1024" height="720" xmlns="http://www.w3.org/2000/svg" xmlns:xlink="http://www.w3.org/1999/xlink" version="1.1"><path d="M941 720L930.8 660C920.7 600 900.3 480 900.3 360C900.3 240 920.7 120 930.8 60L941 0L1024 0L1024 60C1024 120 1024 240 1024 360C1024 480 1024 600 1024 660L1024 720Z" fill="#95aef2"></path><path d="M787 720L771.7 660C756.3 600 725.7 480 713.8 360C702 240 709 120 712.5 60L716 0L942 0L931.8 60C921.7 120 901.3 240 901.3 360C901.3 480 921.7 600 931.8 660L942 720Z" fill="#7f9cee"></path><path d="M603 720L584.3 660C565.7 600 528.3 480 472 360C415.7 240 340.3 120 302.7 60L265 0L717 0L713.5 60C710 120 703 240 714.8 360C726.7 480 757.3 600 772.7 660L788 720Z" fill="#6989e9"></path><path d="M419 720L395 660C371 600 323 480 283.7 360C244.3 240 213.7 120 198.3 60L183 0L266 0L303.7 60C341.3 120 416.7 240 473 360C529.3 480 566.7 600 585.3 660L604 720Z" fill="#5a75cc"></path><path d="M0 720L0 660C0 600 0 480 0 360C0 240 0 120 0 60L0 0L184 0L199.3 60C214.7 120 245.3 240 284.7 360C324 480 372 600 396 660L420 720Z" fill="#4a61b0"></path></svg>